<svg aria-hidden="true" style="position:absolute;width:0;height:0;overflow:hidden" xmlns="http://www.w3.org/2000/svg">
<defs>
<symbol id="icon-bubble" viewBox="0 0 18 18">
<path d="M9.016 3C11.764 3 14 5.243 14 8s-2.236 5-4.97 5l-.06-.004a9.125 9.125 0 0 0-.165-.01l-.336-.014-3.665 1.098.629-2.483-.517-.747a4.976 4.976 0 0 1-.886-2.842c0-2.757 2.236-5 4.984-5zm0-2C5.159 1 2.032 4.134 2.032 8a6.97 6.97 0 0 0 1.241 3.978L2.001 17l6.722-2.015c.098.004.194.015.293.015C12.873 15 16 11.866 16 8s-3.127-7-6.984-7z"/>
</symbol>
<symbol id="icon-download" viewBox="0 0 18 18">
<path d="M16.991 7.5c-.016-.376-.05-.761-.09-1.154-.279-2.725-2.453-4.96-5.166-5.298A5.959 5.959 0 0 0 5.348 5a3.812 3.812 0 0 0-.34-.017c-2.195 0-4.01 1.791-4.01 3.99v.996c0 .545.475.988 1.018.988h.02c.543 0 .958-.467.958-1.011V9.16c-.115-1.187.852-2.186 2.014-2.186.058 0 .115.005.172.01l.77-.01c.452.038.869-.159 1.019-.587l.216-.617c.524-1.499 1.847-2.623 3.426-2.763 2.445-.217 4.557 1.844 4.394 4.283l-.003.209v2.562h.01c.029.521.486.937 1.013.937h.02c.519 0 .915-.426.951-.937h.007V7.499h-.011z"/>
<path d="m11.282 12.306-1.287 1.317V9.99A.987.987 0 0 0 9.01 9h-.02a.987.987 0 0 0-.985.99v3.481l-.129-.021-1.118-1.114c-.353-.351-.918-.437-1.322-.146a.99.99 0 0 0-.127 1.511l3.022 3.008a1 1 0 0 0 1.41 0l2.952-3c.389-.387.389-1.015 0-1.403a1 1 0 0 0-1.41 0z"/>
</symbol>
<symbol id="icon-heart" viewBox="0 0 18 18">
<path d="M12.5 4C13.878 4 15 5.346 15 7c0 3.154-3.818 5.713-6 6.8-2.184-1.089-6-3.647-6-6.8 0-1.654 1.122-3 2.5-3 .643 0 1.347.44 1.883 1.177l.809.886a1 1 0 0 0 1.617 0l.809-.886C11.154 4.44 11.858 4 12.501 4zm0-2c-1.415 0-2.675.866-3.5 2-.825-1.134-2.085-2-3.5-2C3.015 2 1 4.239 1 7c0 5.719 8 9 8 9s8-3.281 8-9c0-2.761-2.015-5-4.5-5z"/>
</symbol>
<symbol id="icon-eye" viewBox="0 0 18 18">
<path d="M9 2C5.737 2 2.475 4.333 0 9c2.475 4.666 5.737 7 9 7s6.525-2.333 9-7c-2.475-4.666-5.737-7-9-7zm0 12c-2.373 0-4.779-1.808-6.703-5C4.221 5.808 6.628 4 9 4s4.779 1.808 6.703 5c-1.924 3.192-4.331 5-6.703 5z"/><path d="M11 9a2 2 0 1 1-4 0 2 2 0 0 1 4 0z"/>
</symbol>
</defs>
</svg>